<svg width="131" height="123" viewBox="0 0 131 123" fill="none" xmlns="http://www.w3.org/2000/svg">
<path d="M64.44 103.057C86.6833 103.057 104.715 85.025 104.715 62.7817C104.715 40.5384 86.6833 22.5067 64.44 22.5067C42.1967 22.5067 24.165 40.5384 24.165 62.7817C24.165 85.025 42.1967 103.057 64.44 103.057Z" fill="#7CB342"/>
<g opacity="0.1">
<path opacity="0.1" d="M103.92 62.7817C103.919 70.6114 101.605 78.2665 97.2681 84.7855C92.9313 91.3045 86.7649 96.3968 79.5435 99.4228C72.3221 102.449 64.3676 103.274 56.679 101.794C48.9903 100.314 41.9103 96.5954 36.328 91.105C46.7593 93.4511 72.5756 94.1257 86.4906 76.7269C96.952 64.1711 94.8577 43.2684 90.6792 33.1695C94.8504 36.8918 98.1867 41.4548 100.469 46.5585C102.751 51.6622 103.927 57.191 103.92 62.7817Z" fill="#010101"/>
</g>
<path d="M30.7097 40.8318C30.7097 40.8318 18.6272 40.2277 14.0963 37.0057C16.6134 36.5023 18.8286 34.8913 20.1375 32.6761C21.6478 30.1589 22.2519 27.239 21.8492 24.3191C21.8492 24.3191 31.0117 24.017 35.7441 18.7812C40.4764 13.5455 41.2819 6.09463 41.2819 6.09463C41.2819 6.09463 49.2362 10.2228 62.9297 7.907C76.6232 5.59119 79.8452 0.355438 79.8452 0.355438C79.8452 0.355438 82.0603 9.41731 89.3098 12.4379C93.9414 14.2503 98.7744 15.4586 103.708 16.0627C103.003 24.7218 97.5662 29.6555 90.6187 31.9713C70.884 24.8225 30.7097 40.8318 30.7097 40.8318Z" fill="#112289"/>
<path opacity="0.1" d="M30.7097 40.8318C30.7097 40.8318 18.6272 40.2277 14.0963 37.0057C16.6134 36.5023 18.8286 34.8913 20.1375 32.6761C21.6478 30.1589 22.2519 27.239 21.8492 24.3191C21.8492 24.3191 31.0117 24.017 35.7441 18.7812C40.4764 13.5455 41.2819 6.09463 41.2819 6.09463C41.2819 6.09463 49.2362 10.2228 62.9297 7.907C76.6232 5.59119 79.8452 0.355438 79.8452 0.355438C79.8452 0.355438 82.0603 9.41731 89.3098 12.4379C93.9414 14.2503 98.7744 15.4586 103.708 16.0627C103.003 24.7218 97.5662 29.6555 90.6187 31.9713C70.884 24.8225 30.7097 40.8318 30.7097 40.8318Z" fill="#3949AB"/>
<path d="M29.1994 44.6579C29.1994 44.6579 42.9936 30.9644 79.2411 33.2802C79.2411 33.2802 90.6188 35.294 93.9414 38.1132C93.9414 38.1132 94.3442 24.1177 77.6301 22.0032C60.9159 19.8888 41.7853 23.6142 33.831 33.7837C31.4145 37.1064 29.9042 40.7311 29.1994 44.6579Z" fill="#1524A5"/>
<path d="M78.6369 33.3809C81.4173 33.3809 83.6713 29.9098 83.6713 25.628C83.6713 21.3461 81.4173 17.875 78.6369 17.875C75.8565 17.875 73.6026 21.3461 73.6026 25.628C73.6026 29.9098 75.8565 33.3809 78.6369 33.3809Z" fill="#111C60"/>
<path d="M80.2479 33.3809C83.0283 33.3809 85.2823 29.9098 85.2823 25.628C85.2823 21.3461 83.0283 17.875 80.2479 17.875C77.4675 17.875 75.2135 21.3461 75.2135 25.628C75.2135 29.9098 77.4675 33.3809 80.2479 33.3809Z" fill="#3949AB"/>
<path d="M30.9111 49.8937C30.9111 49.8937 22.4533 50.4978 20.943 57.6466C20.943 57.6466 12.3846 57.7473 8.75981 64.0906L0 67.7154L0.201376 70.736L17.721 89.6652L19.1306 94.5989C19.1306 94.5989 23.3595 99.5326 28.4946 100.237L35.2406 93.4914C35.2406 93.4914 34.8379 88.457 32.8241 87.6515C30.8104 86.846 25.4739 84.1274 24.4671 84.2281C23.4602 84.3288 18.4258 71.5415 18.4258 71.5415C18.4258 71.5415 30.5083 78.2875 35.1399 65.2989C35.1399 65.1982 44.0004 50.3971 30.9111 49.8937ZM101.795 49.6923L102.298 49.8937C105.621 50.7999 108.138 53.4177 109.045 56.7404C109.045 56.7404 117.603 56.6397 121.328 62.7817L130.29 66.205L130.189 69.2257L113.173 88.6583L111.964 93.6927C111.964 93.6927 110.857 96.7134 105.722 97.4182L95.8545 92.9879C95.8545 92.9879 96.0559 87.9535 98.1703 87.0473C100.285 86.1412 105.42 83.3219 106.427 83.4226C107.434 83.5233 112.065 70.5346 112.065 70.5346C112.065 70.5346 107.635 73.1525 103.003 72.2463C104.715 60.7679 102.701 56.7404 101.795 49.6923Z" fill="black"/>
<path d="M21.8532 78.8957C22.698 80.9195 23.3947 82.1509 24.1267 83.5676C19.2837 84.4426 17.9707 86.4533 17.1723 89.4558L13.034 85.092C14.4094 80.6919 17.0756 79.3266 21.8532 78.8957ZM117.905 83.9683C116.308 85.4686 115.399 86.554 114.329 87.7371C111.81 83.5082 109.465 82.9856 106.374 83.2927L109.008 77.8858C113.611 77.629 115.825 79.6458 117.905 83.9673V83.9683Z" fill="#3949AB"/>
<path opacity="0.1" d="M30.9111 49.8936C37.2946 52.8539 36.0703 64.5235 28.8208 63.0132C28.418 65.9332 27.3105 70.162 18.9534 69.0545C15.8321 69.86 13.2142 70.2627 13.2142 70.2627L22.3768 85.1645C28.3173 86.7755 32.9248 89.4638 35.2406 93.4913C35.2406 93.4913 34.8379 88.457 32.8241 87.6515C30.8104 86.846 25.3007 84.1828 24.2898 84.1576C23.2618 83.7679 18.3493 71.471 18.3493 71.471C18.3493 71.471 30.4157 78.357 35.1399 65.2988C35.0392 65.0975 44.0427 50.4978 30.9111 49.8936Z" fill="#010101"/>
<path opacity="0.15" d="M102.117 52.0887C102.117 52.0887 106.9 54.8978 107.907 58.9253C107.907 58.9253 114.955 59.9322 116.969 64.9666L119.989 65.9735L108.914 85.1041L100.859 90.1385C99.6504 91.1453 98.6435 92.4543 97.9387 93.9646L95.8545 92.9879C95.8545 92.9879 95.9552 87.1732 99.0463 86.7151C101.664 85.4061 105.579 83.3421 106.688 83.332C108.922 79.2864 110.45 74.8883 112.065 70.5346C108.591 72.3268 105.802 72.7195 103.003 72.2463C104.201 65.0693 103.769 59.0059 102.117 52.0887Z" fill="#010101"/>
<path opacity="0.6" d="M61.4194 57.7473C61.4194 57.7473 61.4194 45.6648 67.4606 45.6648C73.5019 45.6648 73.5019 57.3344 73.5019 57.3344C73.5019 57.3344 68.4675 45.6648 61.4194 57.7473Z" fill="#010101"/>
<path opacity="0.6" d="M85.5844 57.2438C85.5844 57.2438 85.5844 46.1682 91.1222 46.1682C96.66 46.1682 96.66 56.8612 96.66 56.8612C96.66 56.8612 92.0485 46.1682 85.5844 57.2438Z" fill="#010101"/>
<path opacity="0.6" fill-rule="evenodd" clip-rule="evenodd" d="M91.3236 83.0098C89.9083 84.5846 88.1793 85.846 86.2476 86.713C84.3159 87.58 82.2243 88.0334 80.107 88.0441H79.674C77.5567 88.0334 75.4651 87.58 73.5334 86.713C71.6017 85.846 69.8727 84.5846 68.4574 83.0098C65.4368 79.6569 63.5237 74.3506 63.5237 71.9341C63.5237 69.5176 68.0144 73.3639 79.6337 73.3639H80.0969C88.0412 73.3639 92.9648 70.8165 93.8407 70.3433C94.7167 69.87 96.2472 69.6888 96.2472 71.9543C96.2472 74.2197 94.3845 79.6569 91.3236 83.0098Z" fill="#010101"/>
<path d="M83.5908 71.5717C88.5844 71.5717 92.6325 67.5235 92.6325 62.5299C92.6325 57.5363 88.5844 53.4882 83.5908 53.4882C78.5971 53.4882 74.549 57.5363 74.549 62.5299C74.549 67.5235 78.5971 71.5717 83.5908 71.5717Z" fill="#3949AB"/>
<g opacity="0.2">
<path opacity="0.2" d="M92.562 63.5872C92.3462 65.3536 91.6151 67.0174 90.4599 68.371C89.3047 69.7246 87.7765 70.7082 86.0659 71.1989C84.3553 71.6896 82.5381 71.6658 80.841 71.1305C79.1439 70.5952 77.6419 69.572 76.5225 68.1886C78.8182 69.0041 84.5775 69.8399 88.2425 66.2755C90.941 63.7181 91.0316 58.9354 90.357 56.5491C91.1974 57.5021 91.828 58.6211 92.2079 59.8337C92.5878 61.0462 92.7084 62.325 92.562 63.5872Z" fill="#010101"/>
</g>
<path d="M49.0348 98.9284C49.0348 98.9284 46.2156 109.702 37.7578 111.917C32.7234 113.226 27.387 112.421 23.0574 109.702C23.0574 109.702 19.1306 108.594 21.3458 112.521C23.5609 116.448 29.8035 124.402 47.3231 118.16C64.8428 111.917 65.4469 101.144 65.4469 101.144C65.4469 101.144 54.1699 102.352 49.0348 98.9284Z" fill="black"/>
<g opacity="0.2">
<path opacity="0.2" d="M49.0348 98.9284C49.0348 98.9284 46.2156 109.702 37.7578 111.917C32.7234 113.226 27.387 112.421 23.0574 109.702C23.0574 109.702 19.1306 108.594 21.3458 112.521C23.5609 116.448 29.8035 124.402 47.3231 118.16C64.8428 111.917 65.4469 101.144 65.4469 101.144C65.4469 101.144 54.1699 102.352 49.0348 98.9284Z" fill="#010101"/>
</g>
<path d="M42.2887 95.0017C42.2887 95.0017 36.0461 108.594 26.9842 98.9285C26.9842 98.9285 21.3457 93.29 23.5609 100.036C25.776 106.782 34.7372 118.865 54.0692 100.942C54.0692 101.043 46.2156 98.9285 42.2887 95.0017Z" fill="black"/>
<path d="M31.7555 105.477C32.0849 104.772 31.6167 103.856 30.7098 103.433C29.8028 103.009 28.8006 103.238 28.4712 103.943C28.1418 104.649 28.61 105.564 29.517 105.987C30.4239 106.411 31.4262 106.182 31.7555 105.477Z" fill="#3949AB"/>
<path d="M35.3012 106.778C36.3011 106.733 37.0838 106.067 37.0493 105.289C37.0149 104.512 36.1763 103.917 35.1764 103.961C34.1764 104.006 33.3937 104.672 33.4282 105.45C33.4627 106.227 34.3012 106.822 35.3012 106.778Z" fill="#3949AB"/>
<path d="M40.3936 105.144C41.0841 104.785 41.4148 104.053 41.1322 103.511C40.8497 102.968 40.0609 102.82 39.3704 103.18C38.6799 103.539 38.3492 104.27 38.6318 104.813C38.9143 105.356 39.7031 105.504 40.3936 105.144Z" fill="#3949AB"/>
<path d="M43.5211 102.4C44.0437 101.823 44.0998 101.022 43.6465 100.612C43.1931 100.201 42.4019 100.336 41.8793 100.913C41.3567 101.49 41.3005 102.291 41.7539 102.701C42.2073 103.112 42.9985 102.977 43.5211 102.4Z" fill="#3949AB"/>
<path opacity="0.3" d="M42.2887 95.0017C42.2887 95.0017 36.0461 108.594 26.9842 98.9285C26.9842 98.9285 21.3457 93.29 23.5609 100.036C25.776 106.782 34.7372 118.865 54.0692 100.942C54.0692 101.043 46.2156 98.9285 42.2887 95.0017Z" fill="#010101"/>
<path d="M46.8197 97.8209C46.8197 97.8209 45.108 112.521 39.4695 112.521C39.4695 112.521 37.2544 112.521 35.5427 109.702C33.831 106.883 32.1193 107.487 32.7234 110.306C33.3276 113.125 34.9386 122.791 46.3162 122.187C57.6939 121.583 62.1242 110.91 62.1242 104.668V101.446C62.0235 101.446 52.4582 101.748 46.8197 97.8209Z" fill="black"/>
<path d="M49.4692 112.81C50.4446 112.072 50.7727 110.862 50.2022 110.109C49.6316 109.355 48.3783 109.343 47.4029 110.081C46.4275 110.819 46.0993 112.029 46.6699 112.783C47.2405 113.536 48.4938 113.549 49.4692 112.81Z" fill="#3949AB"/>
<path d="M43.073 115.924C44.2794 115.721 45.1303 114.8 44.9735 113.868C44.8166 112.936 43.7115 112.345 42.5051 112.548C41.2986 112.751 40.4478 113.671 40.6046 114.603C40.7615 115.535 41.8666 116.127 43.073 115.924Z" fill="#3949AB"/>
<path d="M53.4885 107.465C53.957 106.58 53.819 105.589 53.1802 105.251C52.5414 104.912 51.6437 105.355 51.1751 106.239C50.7066 107.124 50.8446 108.115 51.4834 108.454C52.1223 108.792 53.0199 108.349 53.4885 107.465Z" fill="#3949AB"/>
<path d="M54.7273 102.545C54.8596 101.553 54.3859 100.671 53.6693 100.576C52.9527 100.48 52.2646 101.207 52.1324 102.199C52.0002 103.191 52.4739 104.073 53.1905 104.169C53.907 104.264 54.5951 103.537 54.7273 102.545Z" fill="#3949AB"/>
<path d="M79.3417 98.9284C79.3417 98.9284 82.161 109.702 90.6187 111.917C95.6531 113.226 100.99 112.421 105.319 109.702C105.319 109.702 109.246 108.594 107.031 112.521C104.816 116.448 98.5731 124.402 80.9527 118.16C63.3324 111.917 62.829 101.144 62.829 101.144C62.829 101.144 74.2067 102.352 79.3417 98.9284Z" fill="black"/>
<g opacity="0.2">
<path opacity="0.2" d="M79.3417 98.9284C79.3417 98.9284 82.161 109.702 90.6187 111.917C95.6531 113.226 100.99 112.421 105.319 109.702C105.319 109.702 109.246 108.594 107.031 112.521C104.816 116.448 98.5731 124.402 80.9527 118.16C63.3324 111.917 62.829 101.144 62.829 101.144C62.829 101.144 74.2067 102.352 79.3417 98.9284Z" fill="#010101"/>
</g>
<path d="M86.0878 95.0017C86.0878 95.0017 92.3304 108.594 101.392 98.9285C101.392 98.9285 107.031 93.29 104.816 100.036C102.601 106.782 93.5387 118.865 74.3074 100.942C74.2067 101.043 82.161 98.9285 86.0878 95.0017Z" fill="black"/>
<path d="M98.7655 105.96C99.6725 105.536 100.141 104.621 99.8114 103.916C99.482 103.21 98.4798 102.982 97.5728 103.405C96.6659 103.829 96.1976 104.744 96.527 105.449C96.8563 106.155 97.8586 106.383 98.7655 105.96Z" fill="#3949AB"/>
<path d="M94.9047 105.448C94.9392 104.67 94.1566 104.004 93.1566 103.96C92.1567 103.915 91.3181 104.51 91.2836 105.287C91.2491 106.065 92.0317 106.732 93.0317 106.776C94.0316 106.82 94.8702 106.226 94.9047 105.448Z" fill="#3949AB"/>
<path d="M89.7429 104.788C90.0255 104.246 89.6948 103.514 89.0043 103.155C88.3138 102.795 87.525 102.943 87.2425 103.486C86.9599 104.028 87.2906 104.76 87.9811 105.119C88.6716 105.479 89.4604 105.331 89.7429 104.788Z" fill="#3949AB"/>
<path d="M86.6175 102.67C87.0709 102.259 87.0147 101.459 86.4921 100.882C85.9695 100.305 85.1783 100.17 84.7249 100.58C84.2716 100.991 84.3277 101.792 84.8503 102.369C85.3729 102.946 86.1641 103.081 86.6175 102.67Z" fill="#3949AB"/>
<path opacity="0.2" d="M86.0878 95.0017C86.0878 95.0017 92.3304 108.594 101.392 98.9285C101.392 98.9285 107.031 93.29 104.816 100.036C102.601 106.782 93.5387 118.865 74.3074 100.942C74.2067 101.043 82.161 98.9285 86.0878 95.0017Z" fill="#010101"/>
<path d="M81.5569 97.8209C81.5569 97.8209 83.2686 112.521 88.9071 112.521C88.9071 112.521 91.1222 112.521 92.8339 109.702C94.5455 106.883 96.2572 107.487 95.6531 110.306C95.049 113.125 93.438 122.791 82.0603 122.187C70.6826 121.583 66.2524 110.91 66.2524 104.668V101.446C66.2524 101.446 75.9184 101.748 81.5569 97.8209Z" fill="black"/>
<path d="M81.6249 112.772C82.1955 112.018 81.8673 110.809 80.892 110.07C79.9166 109.332 78.6633 109.344 78.0927 110.098C77.5221 110.852 77.8502 112.061 78.8256 112.8C79.801 113.538 81.0543 113.526 81.6249 112.772Z" fill="#3949AB"/>
<path d="M87.699 114.651C87.8558 113.719 87.0049 112.799 85.7985 112.596C84.5921 112.393 83.4869 112.984 83.3301 113.916C83.1733 114.848 84.0241 115.769 85.2306 115.971C86.437 116.174 87.5421 115.583 87.699 114.651Z" fill="#3949AB"/>
<path d="M76.8697 108.49C77.5085 108.151 77.6466 107.16 77.1781 106.276C76.7096 105.391 75.8119 104.948 75.1731 105.287C74.5343 105.625 74.3962 106.616 74.8647 107.501C75.3332 108.385 76.2309 108.828 76.8697 108.49Z" fill="#3949AB"/>
<path d="M75.1518 104.146C75.8684 104.051 76.3421 103.169 76.2099 102.177C76.0777 101.185 75.3896 100.458 74.673 100.553C73.9564 100.649 73.4827 101.53 73.615 102.523C73.7472 103.515 74.4353 104.242 75.1518 104.146Z" fill="#3949AB"/>
</svg>
